/* XPM */
static char *_e2a6de5f9394f80854dfeb312f1b60eJIFCYBDEYKgHE3Tf[] = {
/* columns rows colors chars-per-pixel */
"64 64 210 2 ",
"   c None",
".  c #091B03",
"X  c #042202",
"o  c #092403",
"O  c #032D01",
"+  c #0C2C05",
"@  c #0F2C0B",
"#  c #142606",
"$  c #152A07",
"%  c #112C0A",
"&  c #1B2E0C",
"*  c #10240A",
"=  c #053301",
"-  c #0C3305",
";  c #043B01",
":  c #0C3B05",
">  c #0E3309",
",  c #0F3C09",
"<  c #103007",
"1  c #143C03",
"2  c #13340C",
"3  c #1A330E",
"4  c #153C0C",
"5  c #193C0D",
"6  c #173610",
"7  c #1D3412",
"8  c #163C11",
"9  c #1B3C12",
"0  c #213F0B",
"q  c #242A13",
"w  c #213F17",
"e  c #233E19",
"r  c #253514",
"t  c #054200",
"y  c #0E430A",
"u  c #0F4B08",
"i  c #094302",
"p  c #134306",
"a  c #104801",
"s  c #16430B",
"d  c #1A430E",
"f  c #154D0C",
"g  c #1A4B0D",
"h  c #16560C",
"j  c #1A540E",
"k  c #19590B",
"l  c #174010",
"z  c #1C4313",
"x  c #1D4B12",
"c  c #1D5314",
"v  c #175A11",
"b  c #1D5B13",
"n  c #224F0D",
"m  c #28560F",
"M  c #23550F",
"N  c #31580F",
"B  c #214415",
"V  c #224B15",
"C  c #2A4814",
"Z  c #23461A",
"A  c #254D1B",
"S  c #294E1B",
"D  c #324D16",
"F  c #235414",
"G  c #2C5315",
"H  c #235B14",
"J  c #2C5D15",
"K  c #25541A",
"L  c #2B551C",
"P  c #255B1A",
"I  c #2A5C1C",
"U  c #335A1C",
"Y  c #385C1E",
"T  c #325619",
"R  c #1B600D",
"E  c #1C6814",
"W  c #2E640E",
"Q  c #246216",
"!  c #25641A",
"~  c #2B631C",
"^  c #246B1B",
"/  c #2C6B1D",
"(  c #376517",
")  c #32641B",
"_  c #38601E",
"`  c #316B1E",
"'  c #2E7012",
"]  c #2F741E",
"[  c #2D7A1C",
"{  c #31731E",
"}  c #3B731C",
"|  c #264B20",
" . c #2B4E22",
".. c #2B5422",
"X. c #2C5A23",
"o. c #265C20",
"O. c #345722",
"+. c #2D6422",
"@. c #256E20",
"#. c #2D6A21",
"$. c #326323",
"%. c #336B23",
"&. c #3A6E21",
"*. c #386528",
"=. c #356F29",
"-. c #3C6F29",
";. c #2F7124",
":. c #347324",
">. c #3B7425",
",. c #377926",
"<. c #3C7A26",
"1. c #35732B",
"2. c #3B752B",
"3. c #357929",
"4. c #3C7D2C",
"5. c #3D7731",
"6. c #406E26",
"7. c #416B28",
"8. c #4A6A27",
"9. c #447323",
"0. c #457A24",
"q. c #437C2D",
"w. c #4D7E2C",
"e. c #46762C",
"r. c #437D32",
"t. c #4A7E33",
"y. c #3E822B",
"u. c #39872F",
"i. c #3E8333",
"p. c #438025",
"a. c #42832D",
"s. c #4D832D",
"d. c #488B2C",
"f. c #53862F",
"g. c #438333",
"h. c #4A8533",
"j. c #468A34",
"k. c #4B8A35",
"l. c #44843A",
"z. c #4C863A",
"x. c #468C3C",
"c. c #4C8B3B",
"v. c #548B33",
"b. c #5D8C35",
"n. c #50873D",
"m. c #518D3C",
"M. c #5B8F3A",
"N. c #4B933C",
"B. c #539235",
"V. c #5C9234",
"C. c #53923D",
"Z. c #5B943C",
"A. c #5A983F",
"S. c #53993E",
"D. c #63963E",
"F. c #659A3C",
"G. c #6B913F",
"H. c #4C8C44",
"J. c #548D42",
"K. c #4C9243",
"L. c #4F9749",
"P. c #549443",
"I. c #5A9444",
"U. c #569A43",
"Y. c #5C9A45",
"T. c #559249",
"R. c #579A48",
"E. c #5D9C4B",
"W. c #5B914D",
"Q. c #629B44",
"!. c #61964B",
"~. c #619C4C",
"^. c #639542",
"/. c #759C45",
"(. c #719D4F",
"). c #669D52",
"_. c #699E53",
"`. c #5FA147",
"'. c #5DA14C",
"]. c #5DA753",
"[. c #63A34D",
"{. c #6DA143",
"}. c #75A74F",
"|. c #79A148",
" X c #78AD4E",
".X c #65A452",
"XX c #6AA354",
"oX c #6CAA54",
"OX c #65A559",
"+X c #69A65A",
"@X c #6EAB5A",
"#X c #67A954",
"$X c #75AB54",
"%X c #79A658",
"&X c #71AC5B",
"*X c #78AF5F",
"=X c #78A853",
"-X c #79B35D",
";X c #699E60",
":X c #6CAD60",
">X c #75A660",
",X c #7CAC61",
"<X c #6EB164",
"1X c #75B360",
"2X c #7DB16A",
"3X c #87AF5F",
"4X c #89B45F",
"5X c #86AE60",
"6X c #8CB663",
"7X c #82B775",
/* pixels */
"                                                                                                                                ",
"                                                                                                                                ",
"                                                                                                                                ",
"                                                                                                                                ",
"                                                                                                                                ",
"                                                                                                                                ",
"                                                                                                                                ",
"                                                                  9                                                             ",
"                                                                < j z                                   7 >                     ",
"                                                +             Z g %.K.K                             $ 2 > +                     ",
"                                              9 @.z           *.H g.[.C.4                         z F 2.d                       ",
"                                            & =.1.h.3       A c.g.%.@XoXL                       Z l.4.2.4                       ",
"                                            7 ~ F z.V +   9 ,.=.h.~ &X1XR.L                 2  .x.1.c.F                         ",
"                                          * K 1.4 ~ r.x   9 r.<.m.F U.&X[.U.9             - | ;Xx.z.z.x                         ",
"                                          % K %.4 P 2.z.6 H :.p.h.V P.C.k.oXA         o 8 u.x.<XK.+.z.c                         ",
"                                &         @ K 2.4 f K J.A p Q 4./ x ,.:.[.Y.z     2 z f E / OX:XX.H.P.P &   @                   ",
"                              2 %.V       @ V >.d = x P.E.A a / / j.H I.[.k.d   x N.i.s [ y.+XU.x K.x.4     2                   ",
"                              2 >.1.V     + c r./ O 8 P.#XP.K g 4.R.L z.:.Q ' A j.N.K { u.j.:.:.x.2.H.z   4 J 2                 ",
"                              6 :.P J.O.  + g :.c = #.P.4.'.XXV 4.m.L !.+.H L R.a.P L.].K./ ;.X.OXR.P   > ^ 2.6                 ",
"                              w r.x l.).A O s ~ F : :.c.! '.@XK ! z.P %.4 z P.C.x 4.E.OX3.R V c.E.N.^ 4 b / &.2                 ",
"                              _ I.>.L XXk.4 , x 2 H ,.I.+.[.[.k.k :.g - c 2.E...= 4.OXE.! s 2.1.U.H.x ^ E P <.4                 ",
"                              V h.>.S ,X~.<.4 z 2 / y.c.F E.7XXXK L V c P E.J.z f 2.R.~ b .._.m.I.S f v 3.E.Y.9                 ",
"                q             g 2.~ V m.*Xk.Q 2 c / 4.E.I k..X1X[.8 y ! l.).L Q *.:Xc.h z r.P.a.V , : K E.S.V                   ",
"                7 r           d ~ g.P.%..Xk.H o c / 1.+XP.I @XoX[.8 f Q j.).Z u #.T.z.x ! #.y.x F 1 8 +.=.m.5                   ",
"                6 r.w #       1 c h.I.+..XX.g 2 s ~ >.I.m.+.oXoXa.- f :.j.I.z t g.&X..v c #.2.x - x l.i.z.Z                     ",
"                2 5.r.z 9     + g 2.~.$.m.>.d +.s s ` q.%.E.=.E.j.+ f j.E.g.4 Q c.&XZ b 4.%.4 4 x 4.c.;.h.2                     ",
"                + K q.q.T.S o   - V n.W.K ` q.d H : p ) $.XX%.[.N.- c N.[.B k k +.).S =.~ 1 : d ,.4.g.4.m.8                     ",
"                  5 $.~ t._.z.1   - 1.z.x c r.x s F ..- x m.N.[.S.- o.@X`.4 h H a.A P ~ x s d / :.c.#.,.Z                       ",
"                    5 F %._.XX6.X 4 +.1.x : K z.K 5.>XX.O z g.U..Xz P #X`.5 h :.v.d x F 4 / / ` y.j.:.5                         ",
"                    5 V $.2.t.Z.S O F 5.H f x c.r.c r.I.x X ! S.E.8 +.R.k.g g a.V P p g 4 / 4.>.g.1.5                           ",
"                      3 I F >.v.Z.x s P L f z J.m.8 ! m.k.V x h.k.s P c.x i #.I.x j s F 4 x 4.>.I 3                             ",
"                        5 x J s.Q.q.x g P s 4 z.r.2 P ~ C.I.z c k.H z z.5 p c.C.x H g d I F &.>.2                               ",
"                        $ # n } >.Q.I.d H 2 - P q.z p ~ h.C.2 c j.c y q.z { a.x H g d 4 ~ &.q.%.@                               ",
"                            > P g.Y.~.X.1.%.> c t.z.d f %.E.A ; P m.A f ~ g.C.4 c g 4 :.a.J.m.c o                               ",
"                              % A q.q.h.L q.4 f 4.j.g = P .XY.V c c.!.z ! k.I.x f 4 P :.{ 9 7                                   ",
"                                + F >.>.I h.B f / k.q.1 ~ [.[.I.x g.).B 1.c.Z s f / 4.>.4                                       ",
"                                o g ` F F ~ >.1 I _.Y.x H a.Y.Q.V ,.~ - 1.z.2 : V a.a.4.4                                       ",
"                                  2 ) 2.$.F &.- j %.C.4.x R.[.A.x :.+.x x t.z F z.k.] / 2                                       ",
"                                    % ~ -.V ) z , j Z.<.Z 2X-XY.x Q x r.4 z #.:.2.+.:.                                          ",
"                                    o F %.e.V l.z p ~ h.4 g.$X .H F ~ 4.l ;./ / 4 o 2                                           ",
"                                      . 7 e.x 1.>.: I v.4 a.-Xe f F g.q.z ;./ 5                                                 ",
"                                          z ~ z %.s F >.5 k.Q.B ; I 4.z ! Q 2                                                   ",
"                                            s H s >.d ) ` =XU H g =.Y.9 Q ] 2                                                   ",
"                                            s J S -.B M p. XS H d %.Y.A d.x                                                     ",
"                                              C b.L 0.V B. XL )   P h.F B.d                                                     ",
"                                                F 0.0.p B.4X$.}   >.m 0.y.2                                                     ",
"                                                1 s.^.I s.6X7.W 0 ) J >.                                                        ",
"                                                  D M.(.L F.}.) O ) f.F                                                         ",
"                                                    U %XI V.{.) d 9.b.V                                                         ",
"                                                    Y }.&.p.F.G s.G w.                                                          ",
"                                                      O.D.) D.Y 9.G N                                                           ",
"                                                      G D.M v./.U v.(                                                           ",
"                                                        V.Y b.|.T v.                                                            ",
"                                                        w.3Xb./.D                                                               ",
"                                                        8.5Xe.G.D                                                               ",
"                                                              C                                                                 ",
"                                                                                                                                ",
"                                                                                                                                ",
"                                                                                                                                ",
"                                                                                                                                ",
"                                                                                                                                ",
"                                                                                                                                ",
"                                                                                                                                ",
"                                                                                                                                "
};
