/* XPM */
static char *c48dfa335cc54379f3ce4b7a8cffc4617K4lorl5ZCgBAFvz[] = {
/* columns rows colors chars-per-pixel */
"64 64 165 2 ",
"   c None",
".  c #010001",
"X  c #090000",
"o  c #000C05",
"O  c #0A0508",
"+  c #0F0F0F",
"@  c #110201",
"#  c #110F0F",
"$  c #001400",
"%  c #001905",
"&  c #00160A",
"*  c #00190F",
"=  c #12110D",
"-  c #120E12",
";  c #0E1110",
":  c #0A1B12",
">  c #131414",
",  c #141119",
"<  c #1C1719",
"1  c #1A191A",
"2  c #2D0E0A",
"3  c #271415",
"4  c #211E1F",
"5  c #331613",
"6  c #391716",
"7  c #351915",
"8  c #3C1913",
"9  c #351918",
"0  c #232323",
"q  c #282828",
"w  c #3D3E2D",
"e  c #431914",
"r  c #47211B",
"t  c #4B241E",
"y  c #59271C",
"u  c #5A2B1F",
"i  c #462A26",
"p  c #462F28",
"a  c #4C2E2B",
"s  c #5B2723",
"d  c #562C26",
"f  c #5C2B25",
"g  c #542E2B",
"h  c #5B2C29",
"j  c #4B322E",
"k  c #53302B",
"l  c #5D312C",
"z  c #503430",
"x  c #602C26",
"c  c #61272C",
"v  c #622E29",
"b  c #60332E",
"n  c #633632",
"m  c #663831",
"M  c #6B3A37",
"N  c #6D3F3A",
"B  c #733E37",
"V  c #7A3B36",
"C  c #753F3A",
"Z  c #793F3B",
"A  c #47452C",
"S  c #49442D",
"D  c #49482A",
"F  c #544A24",
"G  c #444232",
"H  c #524D37",
"J  c #64413D",
"K  c #6E433C",
"L  c #754137",
"P  c #7B4237",
"I  c #75413A",
"U  c #79423B",
"Y  c #79493E",
"T  c #645836",
"R  c #665C38",
"E  c #776B36",
"W  c #786C37",
"Q  c #776D3A",
"!  c #786C3A",
"~  c #793D40",
"^  c #5D4441",
"/  c #5F5A45",
"(  c #664241",
")  c #684240",
"_  c #774443",
"`  c #794340",
"'  c #764B42",
"]  c #7E4C46",
"[  c #7D4F49",
"{  c #7E544F",
"}  c #765551",
"|  c #7F5A51",
" . c #6E6440",
".. c #6B6847",
"X. c #7C7144",
"o. c #80423E",
"O. c #804540",
"+. c #814E47",
"@. c #824D49",
"#. c #84534C",
"$. c #8A554E",
"%. c #875551",
"&. c #8B5650",
"*. c #825850",
"=. c #807347",
"-. c #867B4D",
";. c #47A477",
":. c #49A677",
">. c #47A37D",
",. c #49A67A",
"<. c #4FAD7B",
"1. c #67CF7E",
"2. c #6ACC7F",
"3. c #4B9F85",
"4. c #489E88",
"5. c #47A486",
"6. c #49A387",
"7. c #49A388",
"8. c #4DA289",
"9. c #4CA489",
"0. c #4EA489",
"q. c #49A388",
"w. c #4EA88C",
"e. c #58AF84",
"r. c #50A389",
"t. c #53A78D",
"y. c #55A58D",
"u. c #50A38D",
"i. c #5AB088",
"p. c #56AD92",
"a. c #57AC92",
"s. c #5BAC93",
"d. c #5AAF95",
"f. c #5AAE94",
"g. c #61A48E",
"h. c #67CD83",
"j. c #69CA80",
"k. c #6ACB83",
"l. c #6BCD83",
"z. c #6BCD82",
"x. c #69CE83",
"c. c #6DCE82",
"v. c #6BCB84",
"b. c #6BCC85",
"n. c #6BCD85",
"m. c #6BCC86",
"M. c #6BCC87",
"N. c #6DCE85",
"B. c #6BCD83",
"V. c #6CCC89",
"C. c #72CD8A",
"Z. c #66D080",
"A. c #6DD086",
"S. c #6CD082",
"D. c #70D086",
"F. c #74D28B",
"G. c #79D48E",
"H. c #6ECD92",
"J. c #73C991",
"K. c #73D191",
"L. c #79D395",
"P. c #7AD39B",
"I. c #8ACB98",
"U. c #EBCB9E",
"Y. c #EACAA2",
/* pixels */
"                                        . . . . . . . . . . . . . . . . . . . . . . . .                                         ",
"                                + + + + 7 5 5 J J J J J J J J J K J J J J J J J J 5 5 5 + + + +                                 ",
"                                . . . . h f f I U Y Y Y Y Y U Y Y Y Y Y U U Y Y L f v f . . . .                                 ",
"                          . . X f L L L L L L I h h h h h h f h h f h h h h h h L ] +.U L L L h X . .                           ",
"                    . . X d Y I L L v f X X X X . . . . . . . g k . . . . . . . 4 O . . f f I I _ I f . . .                     ",
"                    X . X f I Y C C v h X . . . . . . . X X . f f . . . . . . 1 < . . X h x C C o.I f . . X                     ",
"              . . . f U L L f g . . . . a.6.6.6.6.6.6.6.6.6.. f f . 6.6.6.5.d.t.6.6.6.6.. . . . g f L L L f . . .               ",
"            . s f L L f f . . . r.9.r.y.s.6.6.6.6.6.6.6.6.6.. f f . 5.6.6.p.8.6.6.6.6.6.3.9.9.9.. . . f h U I s d .             ",
"            @ y s L J a a o o & 6.6.s.t.6.>.:.:.:.:.:.:.6.6.. f f . 5.,.i.e.,.:.:.:.<.q.6.6.6.5.o o o a a J K f f @             ",
"        . . f Z I u X . X 6.5.q.6.d.s.q.6.l.m.m.m.m.m.m.,.6.. f f . 5.:.v.m.m.m.m.z.k.6.6.6.6.6.5.q.q.. . X f I I h X .         ",
"      . h h L f a . 5.6.6.6.6.6.p.V.m.m.m.m.z.z.z.z.z.z.z.z.. f f . A.m.z.z.z.z.z.z.2.m.z.z.z.6.6.6.6.6.6.8.. a f L f h .       ",
"      . Y U f X o g.5.6.6.6.H.P.C.v.z.z.z.z.z.m.z.z.z.z.z.z.o f f . A.m.z.z.z.z.z.z.z.z.z.z.z.m.m.H.6.9.6.6.g.: X f I ' .       ",
"      . I U f . o 5.6.q.q.6.L.F.z.z.z.z.m.l.k.k.k.k.k.k.2.2.. d h . c.k.k.k.k.k.k.k.h.2.z.z.z.z.z.l.u.y.6.6.6.* . f I I .       ",
"  + . f I ` . 5.6.6.6.V.z.m.m.k.z.z.m.m.c.. . . . . . . . . . f f . . . . . . . . . . z.c.h.z.z.z.G.b.m.V.6.6.5.5.. I L f . +   ",
"  + . f I ` . 6.6.5.z.m.z.z.z.z.z.z.$ . . ~ U U U U U Y U U U U O.U U U U U U U U Y ` . . $ z.z.G.F.z.z.2.z.6.6.6.. Z L f . +   ",
"  + . f I ` . 6.6.>.m.z.z.z.z.h.V.V.$ X X I L L L L L L K *.L L L I L L L L L L K B _ X X $ C.I.F.b.z.z.z.z.,.q.5.. Z L f . +   ",
"  + . f I ` . 6.,.z.z.z.z.m.z.J.X X ( I I f h X X . . X - 1 . . . . X . . . X X . f h L L ) < X K.V.z.z.z.z.m.,.5.. Z L f . +   ",
"  + . f I ` . V.z.z.z.z.z.h.. X I I v h . . . f L L L $.U L h . . f L L L L L L f . . . f L #.L X . l.z.z.z.z.z.S.. Z L f . +   ",
"  + . f I ` . m.z.z.z.z.z.% t r L f 2 3 5 J K I 8 8 k k 8 8 h . . f 6 8 8 8 8 8 U K J g 3 7 f L t r $ k.m.z.c.z.S.. Z L f . +   ",
"  + . f I ` . F.z.z.z.z.h.. U U L f @ . h L L L 6 j 5 7 7 7 h . . f 7 7 7 7 7 7 L L I h . @ f L L U . k.z.z.z.z.S.. Z L f . +   ",
"  + . f I ` 1 1 . . . . . . L ` f . ^ I I 7 6 7 C m f f 6 7 h . . f 7 8 f h f f 9 7 7 L L J . f L U . X X . . . . . Z U f . +   ",
"  + . f L $.n I I I I I Y h o.Y f . J U 6 f f K @.I I f 6 7 h . . f 7 8 f U U I f f f 5 I ) . f I Y h Y I I I I I h U +.f . +   ",
"  + . f #.] f Y U U L L U f U Y f . J U 7 f f s ` L L f 6 7 h . . f 7 8 f I L L s f f 7 L ) . f L U f Y L L L L Y f [ I f . +   ",
"  + . l +.U f f f f f f f f L Y f . J U 7 f f L L L L f 6 7 h . . f 7 8 f L L L L f f 7 L ) . f L I f f f f f f f N @.L f . +   ",
"  + 1 K I ` X X X X X X X . Y ` f . J U 7 f f L L L L f 6 7 h . . f 7 8 f P @.L L f f 7 L ) . f I U . . X X X X > > U L f . +   ",
"  0 + f I ` . o . . . . . . L ` f . J U 7 f f Y Y Y ` f 6 7 h . . f 7 8 f #.#.Y U f f 7 L ) . f I U . . . . . > . . Z L f . +   ",
"  + . f I ` . 6.6.6.6.6.5.. L ` f . J U 7 f f f f f f f 6 7 h . . f 7 8 K f f f f f f 7 L ) . f I U . 6.q.q.a.d.6.. Z L f . +   ",
"  + . f I ` . q.6.6.6.6.5.. L ` f . J U 7 7 7 7 7 7 7 7 7 7 f . . f 7 p j 7 7 7 7 7 7 6 L ) . f I U . 6.q.6.6.q.5.. Z L f . +   ",
"  + . f I ` . q.6.6.6.6.5.. P Y N . J U K K K K K K K K K K f . . f | K I K K K K K K K L ) . f I U . 6.q.q.6.6.5.. Z L f . +   ",
"  + . f I ` . q.6.6.6.6.5.. P %.K . J U I I I I I I I I L L h . . L +.U I I I I I I I I U ) . f I U . 6.6.6.6.6.5.. Z L f . +   ",
"  + . f I ` . q.6.6.6.6.5.. $.` f . J U 6 7 7 7 7 7 7 7 L L f . 1 h L K 7 7 7 7 7 7 7 7 L ) . f I U . 6.6.6.6.6.5.. Z L f . +   ",
"  + . f I ` . q.6.6.6.6.5.4 +.Y f . J U 7 d f s s f d 7 L L f . . f L K 7 f f f s f h 7 L ) . f I U . 6.6.6.6.6.5.. Z L f . +   ",
"  + . f I ` . q.6.6.6.6.w.X P Y f . J U 7 f f f f f f 7 L L h . . f L K 7 f f f f f f 7 L ) . f L o.. 6.6.6.6.6.5.. Z L f . +   ",
"  + . f I ` . q.6.6.6.d.p.. P Y f . J U 7 f f L L I f 7 L L h . . f L K 7 f U L L f f 7 L ) . b L o.. 6.6.6.6.6.5.. Z L f . +   ",
"  + . f I ` . q.6.6.d.q.5.. P Y f . J U 7 f f L L I x 7 L L h . . f L K 7 f L L L f f 7 L ) > b Y o.. 6.6.6.6.6.5.. Z L f . +   ",
"  + . f I ` . q.6.6.6.5.5.. P Y f . J U 7 f f L L I x 7 L I h . . f L K 7 f U L L f f 7 L } . s L o.. 6.6.6.6.6.5.. Z L f . +   ",
"  + . f I ` . q.6.6.6.6.5.. U U f . J U 7 f f L L L x 7 L L h X . h L K 7 f U L L f f 7 +.} . f I U . 4.q.q.6.6.5.. Z L f . +   ",
"  + . f I ` . 6.6.6.z.m.h.. U U f . J U 7 f f I L $.v 7 L U U.. . Y.L K 7 f U L L f h i I ) . f I U . k.z.z.q.6.5.. Z L f . +   ",
"  + . f I ` . 6.;.V.z.z.Z.. U Y f . J U 7 f f L #.#.f 7 L U Y.. . U.U K 7 f U L L f M p U ) . f I U . v.m.z.V.;.5.. Z L f . +   ",
"  + . f I ` . 6.,.m.z.z.Z.. U Y f . J U 7 f f #.U I x 7 L U Y.. . U.L K 7 f U L L N n 7 L ) . f I U . k.z.z.z.,.q.. Z L f . +   ",
"  + . f I ` . V.z.z.z.z.Z.. U Y f . J U 7 f K ] U I f 7 I U Y.. . U.U K 7 f L L L f f 7 L ) . f L o.. j.c.c.z.z.S.. Z L f . +   ",
"  + . n I ` . V.z.z.z.z.Z.. U Y f . J U 7 l f L L I f 7 I U ! . . E L K 7 f U L L f f 7 L ) . f L o.. k.z.z.z.z.l.. Z L f . +   ",
"  + > K I ` . V.z.z.z.z.Z.. U Y f . J U z K f L L I f 7 L U ! . . W U K 7 f U L L f f 7 L ) . f L o.. j.z.z.z.z.D.. Z L f . +   ",
"  q + h I ` . V.z.z.z.z.Z.. U Y f . J &.7 f f f f f f 7 I U Q . . ! U K 7 f f f f f f 7 L ) . f L o.. k.l.z.z.G.F.. Z L f . +   ",
"  > . f I ` . V.z.z.z.z.Z.. U U f . J U 7 7 7 7 7 7 7 7 L L f X . c L K 7 7 7 7 7 7 7 7 L ) . f I U . k.z.z.C.c.l.. Z L f . +   ",
"  > . f I ` . V.z.z.z.z.Z.. U U f . J U e e e 8 e e 8 e I L f . . f L B 8 8 e 8 e 8 8 8 L ) . f I U . k.m.C.G.z.S.. Z L f . +   ",
"  + . f I ` . V.z.z.z.z.Z.. U Y f . J U Z L L L L L L L L L h . . f #.L L L L L L L L L U ) . f I U . k.G.C.z.z.S.. Z L f . +   ",
"  + . f I ` . V.z.z.z.z.Z.. U Y f . J U 7 6 7 7 7 7 7 7 L L h . . I %.N 7 7 7 7 6 6 7 7 L ) . f I U . C.G.z.z.z.S.. Z L f . +   ",
"  + . f I ` . V.z.z.z.z.Z.. U Y f . J U 7 k f f f f h 7 L L h . > f L K 7 f f f f h l 7 L ) . f L o.1 C.l.c.c.c.S.. Z L f . +   ",
"  + . f I ` . V.z.z.z.z.h.. U Y f . J U 7 f f f f f f 7 L L h 1 ; f L K 7 f s h f h f 7 L ) . f L o.. k.c.c.z.c.S.. Z L f . +   ",
"  + . f I ` . V.z.z.z.z.F.. U Y f . J U 7 f f L L I f 7 L I l - . f L K 7 f U L L f f 7 L ) . f L U . k.z.z.z.z.S.. Z L f . +   ",
"  + . f I ` . V.z.z.z.C.F.. U Y f . J U 7 f f L L I f 7 I #.N . . f L K 7 f U L L f f 7 L ) . f I U . k.z.z.z.z.S.. Z L f . +   ",
"  + . f I ` . V.z.z.L.l.1.. U Y f . J U 7 f f L I I f 7 #.I h . . f L K 7 f Y L L f f 7 L ) . f I U . k.z.z.z.z.S.. Z L f . +   ",
"  + . f I ` . v.z.G.l.z.h.. U Y f . J U 7 f f f f f f 7 L L f . . f I K 7 f f f f f f 7 L ) . f I U . k.z.z.z.z.z.. Z L f . +   ",
"  + . f L ` . . = . . . . . L ` f . J U 7 7 7 7 7 7 7 7 L L f . . f L K 7 7 7 7 7 7 5 7 L ) . f I U . . . . . . . . Z L f . +   ",
"  + . f C L J } } J J J J J V Y f . J L K I I I _ _ I I I L f . . f L ` I I I _ I I N { U ) . f I Z J J J J J J J J L L f 1 1   ",
"  + . f U U Y I I I I I I I I U f . J U I I I I I I I I I Y f . . f U I I I I I I I #.#.I ) . f ` U L L I I I I I I I Y h 1 +   ",
"  + . f f f f f f f f f f f f f f . a f f f f f f f f f f f f . . f f f f f f f f l f f f a . f f f f f f f f f f f f n n . +   ",
"  + . . . . . . . . . . . . . . . . . . . . . . . . . . . . . . . . . . . . . . 1 + . . . . . . . . . . . . . . . . . . . . +   ",
"  # . . . . . . . . . . . . . . . . . . . 1 . . . . . . . . . . . . . . . . . . , . . . . . . . . . . . . . . . . . . . . . -   ",
". ..! ! ! ! ! ! ! ! ! ! ! ! ! ! ! ! ! ! =.-.! ! ! ! ! ! ! ! ! ! ! ! ! ! ! Q X.-.! ! ! ! ! ! ! ! ! ! ! ! ! ! ! ! ! ! ! ! ! !  .. ",
". D F F F F F F F F F F F F F F F F F T F F F F F F F F F F F F F F F F F R F F F F F F F F F F F F F F F F F F F F F F F F D . ",
". w A S S S S S S S S S S S S S S S / H S S S S S S S S S S S S S S S S S A A S S S S S S S S S S S S S S S S S S S S S S A G . ",
". . . . . . . . . . . . . . . . . 1 + . . . . . . . . . . . . . . . . . . . . . . . . . . . . . . . . . . . . . . . . . . . . . "
};
