/* XPM */
static char *_3a7be4829604874f097a0dea19dbfa6favAQPdoCFt8xVFI[] = {
/* columns rows colors chars-per-pixel */
"64 64 8 1 ",
"  c #353638",
". c #37383A",
"X c #38393B",
"o c #393A3C",
"O c #3B3C3E",
"+ c #3C3C3E",
"@ c #3E3F41",
"# c #2ACE86",
/* pixels */
"................................................................",
"................................................................",
"................................................................",
"...############.....########################.....############+..",
"...###########......O######################o......###########...",
"...##########....#....####################....#....##########...",
"...#########....###....##################....###....#########...",
"...########....#####....################....#####....########...",
"...#######....#######....##############....#######....#######...",
"...######....#########...o############....#########....######...",
"...#####....###########....##########....###########....#####...",
"...####....#############....########o...#############....####...",
"...###....###############....######....###############....###...",
"...##....#################....####....#################....##...",
"...#....###################...o##....###################....#...",
".......#####################........#####################.......",
"......#######################.....o#######################......",
".....#########################....#########################.....",
"......#######################......#######################......",
".......#####################........#####################X......",
"...#....###################....##....###################....#...",
"...##....#################....####...o#################....##...",
"...###....###############...o######....###############@...###...",
"...####....#############...o########@..o#############....####...",
"...#####....###########...o##########....###########....#####...",
"...######o...#########....############....#########....######...",
"...#######....#######...@##############....#######....#######...",
"...########....#####....################O...#####....########...",
"...#########....###....##################...X###....#########...",
"...##########....#...O####################....#....##########...",
"...###########o......######################......@###########...",
"...############.....########################.....############...",
"...############.....########################.....############...",
"...###########@......######################.......###########...",
"...##########...@#....####################....#....##########...",
"...#########....###o...##################...@###....#########...",
"...########...o#####....################....#####o...########...",
"...#######....#######X...##############....#######....#######...",
"...######...O#########....############....#########....######...",
"...#####...o###########X...##########....###########@...#####...",
"...####....#############@...########o.. #############....####...",
"...###...@###############....######....###############....###...",
"...##....#################O...####....#################....##...",
"..o#....###################....##....###################....#...",
"......o#####################o.......#####################X......",
"......#######################......#######################......",
".....#########################....#########################.....",
"......#######################O.....#######################......",
".......#####################........#####################.......",
"...#....###################....##...@###################....#o..",
"...##....#################....####....#################....##...",
"...###....###############....######....###############....###...",
"...####....#############o...########...@#############....####...",
"...#####....###########....##########....###########....#####...",
"...######....#########+.. ############...@#########....######...",
"...#######....#######....##############....#######....#######...",
"...########....#####....################....#####....########...",
"...#########....###....##################o...###....#########...",
"...##########....#....####################....#....##########...",
"...###########.......######################.......###########...",
"..X############.....########################.....############X..",
"................................................................",
"................................................................",
"................................................................"
};
