/* XPM */
static char *_cbd0d649c5e45dbd242fa936cea7e21CmZYgldbeV3kfOpk[] = {
/* columns rows colors chars-per-pixel */
"64 64 10 1 ",
"  c None",
". c black",
"X c #4E5122",
"o c #696D2E",
"O c #18386B",
"+ c #D41616",
"@ c #FFF700",
"# c #1D478B",
"$ c #E7CDBC",
"% c white",
/* pixels */
"                                                                ",
"                                                                ",
"                                                                ",
"                                                                ",
"                        .....                                   ",
"                     .....##.......                             ",
"                   ..#############...                           ",
"                 ...#################..                         ",
"                ..####################..                        ",
"                .#######################.                       ",
"          .... .########################..                      ",
"     ......###..##########################.                     ",
"   ...########.###########################..                    ",
"  ..#########..############################.                    ",
"  .########################################.                    ",
"  .#######################################...                   ",
"  .###################################....OO..         oo       ",
"  .##############################......OOOOOOO.      oooooo     ",
"  .#######################@@@#....OOOOOOOOOOOO..    oooXXoo     ",
"  .################......@@@@@.OOOOOOOOOOOOOOOO.   ooXXXoooo    ",
"  .############..........@@@@@.....OOOOOOOOOOO..   oXXXoooooo   ",
"   .#########.............@@@$$$$$..OOOOOOOOOO.    oXoooooooo   ",
"   .######...............$$$$$$$$$$$.OOOOOOOOO.    ooooooooooo  ",
"   ..##..........$$$$$$$$$$$$$$$$$$$$.OOOOOOO.      oooooooooo  ",
"    .........$$$$$$$$$$$$$$$$$$$$$$$$.OOOOO..        oooooooo   ",
"     ......$$$$$$$......$$$$$$$$$$$$$.OOOOO.         oooooooo   ",
"     ....$$$..$$$..$$$...$$$$$$$$$$$$.OOO..           oooooo    ",
"    ...$$$$$$..$..$$$$$$..$$$$$$$..$$.....             oooo     ",
"    ..$$$$$.$$$$.$$$$$$$$..$$$$$$...$$..               ooo      ",
"    ..$$$$$...$$$$$$$$$$$$..$$$$$...$$.              ooo        ",
"    ..$$$$$$$....$$$$$$$$$$..$$$$...$$..           ooo          ",
"    ..$$$$$$$$$$$$$$$$$$$$$..$$$$...$$..     .......            ",
"    ..$$$$$$$$$$$$$$.$$$.....$$$$$.$$$$..  ....$$...            ",
"    ..$$$$$$$$$$$$$$.$$..$$$$$$$$$$$$$$$....$$$$$$$..           ",
"     .$$$$$$$$$$$$$$..$$$$$$$$$$$$$$$$$$$...$$$$$$$$..          ",
"     .$$$$$$$$$$$$$$$..$$$$$$$$$$$$$$$$$$$$..$$$$$$$$.          ",
"     ..$$$$$$$$$$$$$$$$$$$$$$$$..$$$$$$$$$$..$$$$$$$$..         ",
"     ..$$$$$$$$$$$$..$$$$$$$$$...$$$$$$$$$$$.$$$$$$$$$.         ",
"      .$$$$$$$$$$.........$$$$.$$$$$$$$$$$$$.$$$$$$$$$.         ",
"      ..$$$$$$$$..%%%%%%.......$$$$$$$$$$$$$.$$$$$$$$$.         ",
"      ......$$$$..%%%%%%%%%%%%..$$$$$$$$$$$..$$$$$$$$$.         ",
"     ...$$..$$$$....%%%%%%%%%%...$$$$$$$$$..$$$$$$$$$$.         ",
"     .$$$$$$$$$$$..........................$$$$$$$$$$..         ",
"    ..$$..$$$$$$$$.......................$$$$$$$$$$$$.          ",
"    ..$.$...$$$$$$................$$$$$$$$$$$$$$$$$$..          ",
"    ..$$$.$.$$$$$$$..............$$$$$$$$$$$$$$.$$$..           ",
"     .$$.$$$$$$$$$$..............$$$$$$$$$$$$$..$...            ",
"     ..$$$$$$$$$$$$...+++........$$$$$$$$$$$$$....              ",
"     ...$$$$$$$$$.$$..+++++.++...$$$$$$$$$$$$...                ",
"       .....$$$$$.$$...+++++++..$$$$$$$$$$$$..                  ",
"           .$$$$$.$$$..+++++++..$$$$$$$$$$$$..                  ",
"           ..$$$$..$$...+++++..$$$$$$$$$$$$..                   ",
"           ..$$$$$..$$...+++...$$$$$$$$$$$..                    ",
"            ..$$$$$..$$$.....$$$$$$$$$$$$...                    ",
"            ..$$$$$$..$$$$$$$$$$$$$$$$$$...                     ",
"             ..$$$$$$$...$$$$$$$$$$$$$$...                      ",
"              ...$$$$$$$$$$$$$$$$$$$$$..                        ",
"               ....$$$$$$$$$$$$$$$$$...                         ",
"                 .....$$$$$$$$$$.....                           ",
"                    ..............                              ",
"                                                                ",
"                                                                ",
"                                                                ",
"                                                                "
};
