/* XPM */
static char *_3bb038b58f24aedd074a343ab1b75505ybtuqObxttx15BG[] = {
/* columns rows colors chars-per-pixel */
"64 64 3 1 ",
"  c #9F5538",
". c #B76140",
"X c #A38E8E",
/* pixels */
"X....................X                     X....................",
"X....................X                     X....................",
"X....................X                     X....................",
"X....................X                     X....................",
"X....................X                     X....................",
"X....................X                     X....................",
"X....................X                     X....................",
"XXXXXXXXXXXXXXXXXXXXXXXXXXXXXXXXXXXXXXXXXXXXXXXXXXXXXXXXXXXXXXXX",
"............X                     X                    X........",
"............X                     X                    X........",
"............X                     X                    X........",
"............X                     X                    X........",
"............X                     X                    X........",
"............X                     X                    X........",
"............X                     X                    X........",
"XXXXXXXXXXXXXXXXXXXXXXXXXXXXXXXXXXXXXXXXXXXXXXXXXXXXXXXXXXXXXXXX",
"X                    X.....................X....................",
"X                    X.....................X....................",
"X                    X.....................X....................",
"X                    X.....................X....................",
"X                    X.....................X....................",
"X                    X.....................X....................",
"X                    X.....................X....................",
"XXXXXXXXXXXXXXXXXXXXXXXXXXXXXXXXXXXXXXXXXXXXXXXXXXXXXXXXXXXXXXXX",
"............X.....................X                    X........",
"............X.....................X                    X........",
"............X.....................X                    X........",
"............X.....................X                    X........",
"............X.....................X                    X........",
"............X.....................X                    X........",
"............X.....................X                    X........",
"XXXXXXXXXXXXXXXXXXXXXXXXXXXXXXXXXXXXXXXXXXXXXXXXXXXXXXXXXXXXXXXX",
"X                    X.....................X....................",
"X                    X.....................X....................",
"X                    X.....................X....................",
"X                    X.....................X....................",
"X                    X.....................X....................",
"X                    X.....................X....................",
"X                    X.....................X....................",
"XXXXXXXXXXXXXXXXXXXXXXXXXXXXXXXXXXXXXXXXXXXXXXXXXXXXXXXXXXXXXXXX",
"            X.....................X                    X        ",
"            X.....................X                    X        ",
"            X.....................X                    X        ",
"            X.....................X                    X        ",
"            X.....................X                    X        ",
"            X.....................X                    X        ",
"            X.....................X                    X        ",
"XXXXXXXXXXXXXXXXXXXXXXXXXXXXXXXXXXXXXXXXXXXXXXXXXXXXXXXXXXXXXXXX",
"X....................X.....................X                    ",
"X....................X.....................X                    ",
"X....................X.....................X                    ",
"X....................X.....................X                    ",
"X....................X.....................X                    ",
"X....................X.....................X                    ",
"X....................X.....................X                    ",
"XXXXXXXXXXXXXXXXXXXXXXXXXXXXXXXXXXXXXXXXXXXXXXXXXXXXXXXXXXXXXXXX",
"............X                     X....................X........",
"............X                     X....................X........",
"............X                     X....................X........",
"............X                     X....................X........",
"............X                     X....................X........",
"............X                     X....................X........",
"............X                     X....................X........",
"XXXXXXXXXXXXXXXXXXXXXXXXXXXXXXXXXXXXXXXXXXXXXXXXXXXXXXXXXXXXXXXX"
};
